<svg xmlns:xlink="http://www.w3.org/1999/xlink" width="75ex" height="26.509ex" style="font-size: 15px; vertical-align: -13.171ex; max-width: 450;" viewBox="0 -5742.7 32291.5 11413.7" role="img" focusable="false" xmlns="http://www.w3.org/2000/svg">
<defs>
<path stroke-width="1" id="E1-MJAMS-45" d="M12 666Q12 675 24 683H582Q590 680 593 672V588Q593 514 591 502T575 490Q567 490 563 495T555 517Q552 556 517 590Q486 623 445 634T340 648H282Q266 636 264 620T260 492V370H277Q329 375 358 391T404 439Q420 480 420 506Q420 529 436 529Q445 529 451 521Q455 517 455 361Q455 333 455 298T456 253Q456 217 453 207T437 197Q420 196 420 217Q420 240 406 270Q377 328 284 335H260V201Q261 174 261 134Q262 73 264 61T278 38Q281 36 282 35H331Q400 35 449 50Q571 93 602 179Q605 203 622 203Q629 203 634 197T640 183Q638 181 624 95T604 3L600 -1H24Q12 5 12 16Q12 35 51 35Q92 38 97 52Q102 60 102 341T97 632Q91 645 51 648Q12 648 12 666ZM137 341Q137 131 136 89T130 37Q129 36 129 35H235Q233 41 231 48L226 61V623L231 635L235 648H129Q132 641 133 638T135 603T137 517T137 341ZM557 603V648H504Q504 646 515 639Q527 634 542 619L557 603ZM420 317V397L406 383Q394 370 380 363L366 355Q373 350 382 346Q400 333 409 328L420 317ZM582 61L586 88Q585 88 582 83Q557 61 526 46L511 37L542 35H577Q577 36 578 39T580 49T582 61Z"></path>
<path stroke-width="1" id="E1-MJMAIN-5B" d="M118 -250V750H255V710H158V-210H255V-250H118Z"></path>
<path stroke-width="1" id="E1-MJMATHI-58" d="M42 0H40Q26 0 26 11Q26 15 29 27Q33 41 36 43T55 46Q141 49 190 98Q200 108 306 224T411 342Q302 620 297 625Q288 636 234 637H206Q200 643 200 645T202 664Q206 677 212 683H226Q260 681 347 681Q380 681 408 681T453 682T473 682Q490 682 490 671Q490 670 488 658Q484 643 481 640T465 637Q434 634 411 620L488 426L541 485Q646 598 646 610Q646 628 622 635Q617 635 609 637Q594 637 594 648Q594 650 596 664Q600 677 606 683H618Q619 683 643 683T697 681T738 680Q828 680 837 683H845Q852 676 852 672Q850 647 840 637H824Q790 636 763 628T722 611T698 593L687 584Q687 585 592 480L505 384Q505 383 536 304T601 142T638 56Q648 47 699 46Q734 46 734 37Q734 35 732 23Q728 7 725 4T711 1Q708 1 678 1T589 2Q528 2 496 2T461 1Q444 1 444 10Q444 11 446 25Q448 35 450 39T455 44T464 46T480 47T506 54Q523 62 523 64Q522 64 476 181L429 299Q241 95 236 84Q232 76 232 72Q232 53 261 47Q262 47 267 47T273 46Q276 46 277 46T280 45T283 42T284 35Q284 26 282 19Q279 6 276 4T261 1Q258 1 243 1T201 2T142 2Q64 2 42 0Z"></path>
<path stroke-width="1" id="E1-MJMAIN-5D" d="M22 710V750H159V-250H22V-210H119V710H22Z"></path>
<path stroke-width="1" id="E1-MJMAIN-3D" d="M56 347Q56 360 70 367H707Q722 359 722 347Q722 336 708 328L390 327H72Q56 332 56 347ZM56 153Q56 168 72 173H708Q722 163 722 153Q722 140 707 133H70Q56 140 56 153Z"></path>
<path stroke-width="1" id="E1-MJSZ2-222B" d="M114 -798Q132 -824 165 -824H167Q195 -824 223 -764T275 -600T320 -391T362 -164Q365 -143 367 -133Q439 292 523 655T645 1127Q651 1145 655 1157T672 1201T699 1257T733 1306T777 1346T828 1360Q884 1360 912 1325T944 1245Q944 1220 932 1205T909 1186T887 1183Q866 1183 849 1198T832 1239Q832 1287 885 1296L882 1300Q879 1303 874 1307T866 1313Q851 1323 833 1323Q819 1323 807 1311T775 1255T736 1139T689 936T633 628Q574 293 510 -5T410 -437T355 -629Q278 -862 165 -862Q125 -862 92 -831T55 -746Q55 -711 74 -698T112 -685Q133 -685 150 -700T167 -741Q167 -789 114 -798Z"></path>
<path stroke-width="1" id="E1-MJMAIN-31" d="M213 578L200 573Q186 568 160 563T102 556H83V602H102Q149 604 189 617T245 641T273 663Q275 666 285 666Q294 666 302 660V361L303 61Q310 54 315 52T339 48T401 46H427V0H416Q395 3 257 3Q121 3 100 0H88V46H114Q136 46 152 46T177 47T193 50T201 52T207 57T213 61V578Z"></path>
<path stroke-width="1" id="E1-MJMAIN-30" d="M96 585Q152 666 249 666Q297 666 345 640T423 548Q460 465 460 320Q460 165 417 83Q397 41 362 16T301 -15T250 -22Q224 -22 198 -16T137 16T82 83Q39 165 39 320Q39 494 96 585ZM321 597Q291 629 250 629Q208 629 178 597Q153 571 145 525T137 333Q137 175 145 125T181 46Q209 16 250 16Q290 16 318 46Q347 76 354 130T362 333Q362 478 354 524T321 597Z"></path>
<path stroke-width="1" id="E1-MJMATHI-78" d="M52 289Q59 331 106 386T222 442Q257 442 286 424T329 379Q371 442 430 442Q467 442 494 420T522 361Q522 332 508 314T481 292T458 288Q439 288 427 299T415 328Q415 374 465 391Q454 404 425 404Q412 404 406 402Q368 386 350 336Q290 115 290 78Q290 50 306 38T341 26Q378 26 414 59T463 140Q466 150 469 151T485 153H489Q504 153 504 145Q504 144 502 134Q486 77 440 33T333 -11Q263 -11 227 52Q186 -10 133 -10H127Q78 -10 57 16T35 71Q35 103 54 123T99 143Q142 143 142 101Q142 81 130 66T107 46T94 41L91 40Q91 39 97 36T113 29T132 26Q168 26 194 71Q203 87 217 139T245 247T261 313Q266 340 266 352Q266 380 251 392T217 404Q177 404 142 372T93 290Q91 281 88 280T72 278H58Q52 284 52 289Z"></path>
<path stroke-width="1" id="E1-MJMATHI-70" d="M23 287Q24 290 25 295T30 317T40 348T55 381T75 411T101 433T134 442Q209 442 230 378L240 387Q302 442 358 442Q423 442 460 395T497 281Q497 173 421 82T249 -10Q227 -10 210 -4Q199 1 187 11T168 28L161 36Q160 35 139 -51T118 -138Q118 -144 126 -145T163 -148H188Q194 -155 194 -157T191 -175Q188 -187 185 -190T172 -194Q170 -194 161 -194T127 -193T65 -192Q-5 -192 -24 -194H-32Q-39 -187 -39 -183Q-37 -156 -26 -148H-6Q28 -147 33 -136Q36 -130 94 103T155 350Q156 355 156 364Q156 405 131 405Q109 405 94 377T71 316T59 280Q57 278 43 278H29Q23 284 23 287ZM178 102Q200 26 252 26Q282 26 310 49T356 107Q374 141 392 215T411 325V331Q411 405 350 405Q339 405 328 402T306 393T286 380T269 365T254 350T243 336T235 326L232 322Q232 321 229 308T218 264T204 212Q178 106 178 102Z"></path>
<path stroke-width="1" id="E1-MJMAIN-28" d="M94 250Q94 319 104 381T127 488T164 576T202 643T244 695T277 729T302 750H315H319Q333 750 333 741Q333 738 316 720T275 667T226 581T184 443T167 250T184 58T225 -81T274 -167T316 -220T333 -241Q333 -250 318 -250H315H302L274 -226Q180 -141 137 -14T94 250Z"></path>
<path stroke-width="1" id="E1-MJMAIN-29" d="M60 749L64 750Q69 750 74 750H86L114 726Q208 641 251 514T294 250Q294 182 284 119T261 12T224 -76T186 -143T145 -194T113 -227T90 -246Q87 -249 86 -250H74Q66 -250 63 -250T58 -247T55 -238Q56 -237 66 -225Q221 -64 221 250T66 725Q56 737 55 738Q55 746 60 749Z"></path>
<path stroke-width="1" id="E1-MJMATHI-64" d="M366 683Q367 683 438 688T511 694Q523 694 523 686Q523 679 450 384T375 83T374 68Q374 26 402 26Q411 27 422 35Q443 55 463 131Q469 151 473 152Q475 153 483 153H487H491Q506 153 506 145Q506 140 503 129Q490 79 473 48T445 8T417 -8Q409 -10 393 -10Q359 -10 336 5T306 36L300 51Q299 52 296 50Q294 48 292 46Q233 -10 172 -10Q117 -10 75 30T33 157Q33 205 53 255T101 341Q148 398 195 420T280 442Q336 442 364 400Q369 394 369 396Q370 400 396 505T424 616Q424 629 417 632T378 637H357Q351 643 351 645T353 664Q358 683 366 683ZM352 326Q329 405 277 405Q242 405 210 374T160 293Q131 214 119 129Q119 126 119 118T118 106Q118 61 136 44T179 26Q233 26 290 98L298 109L352 326Z"></path>
<path stroke-width="1" id="E1-MJMATHI-61" d="M33 157Q33 258 109 349T280 441Q331 441 370 392Q386 422 416 422Q429 422 439 414T449 394Q449 381 412 234T374 68Q374 43 381 35T402 26Q411 27 422 35Q443 55 463 131Q469 151 473 152Q475 153 483 153H487Q506 153 506 144Q506 138 501 117T481 63T449 13Q436 0 417 -8Q409 -10 393 -10Q359 -10 336 5T306 36L300 51Q299 52 296 50Q294 48 292 46Q233 -10 172 -10Q117 -10 75 30T33 157ZM351 328Q351 334 346 350T323 385T277 405Q242 405 210 374T160 293Q131 214 119 129Q119 126 119 118T118 106Q118 61 136 44T179 26Q217 26 254 59T298 110Q300 114 325 217T351 328Z"></path>
<path stroke-width="1" id="E1-MJMAIN-2B" d="M56 237T56 250T70 270H369V420L370 570Q380 583 389 583Q402 583 409 568V270H707Q722 262 722 250T707 230H409V-68Q401 -82 391 -82H389H387Q375 -82 369 -68V230H70Q56 237 56 250Z"></path>
<path stroke-width="1" id="E1-MJMAIN-2264" d="M674 636Q682 636 688 630T694 615T687 601Q686 600 417 472L151 346L399 228Q687 92 691 87Q694 81 694 76Q694 58 676 56H670L382 192Q92 329 90 331Q83 336 83 348Q84 359 96 365Q104 369 382 500T665 634Q669 636 674 636ZM84 -118Q84 -108 99 -98H678Q694 -104 694 -118Q694 -130 679 -138H98Q84 -131 84 -118Z"></path>
<path stroke-width="1" id="E1-MJMAIN-2212" d="M84 237T84 250T98 270H679Q694 262 694 250T679 230H98Q84 237 84 250Z"></path>
<path stroke-width="1" id="E1-MJMAIN-7B" d="M434 -231Q434 -244 428 -250H410Q281 -250 230 -184Q225 -177 222 -172T217 -161T213 -148T211 -133T210 -111T209 -84T209 -47T209 0Q209 21 209 53Q208 142 204 153Q203 154 203 155Q189 191 153 211T82 231Q71 231 68 234T65 250T68 266T82 269Q116 269 152 289T203 345Q208 356 208 377T209 529V579Q209 634 215 656T244 698Q270 724 324 740Q361 748 377 749Q379 749 390 749T408 750H428Q434 744 434 732Q434 719 431 716Q429 713 415 713Q362 710 332 689T296 647Q291 634 291 499V417Q291 370 288 353T271 314Q240 271 184 255L170 250L184 245Q202 239 220 230T262 196T290 137Q291 131 291 1Q291 -134 296 -147Q306 -174 339 -192T415 -213Q429 -213 431 -216Q434 -219 434 -231Z"></path>
<path stroke-width="1" id="E1-MJMAIN-2265" d="M83 616Q83 624 89 630T99 636Q107 636 253 568T543 431T687 361Q694 356 694 346T687 331Q685 329 395 192L107 56H101Q83 58 83 76Q83 77 83 79Q82 86 98 95Q117 105 248 167Q326 204 378 228L626 346L360 472Q291 505 200 548Q112 589 98 597T83 616ZM84 -118Q84 -108 99 -98H678Q694 -104 694 -118Q694 -130 679 -138H98Q84 -131 84 -118Z"></path>
<path stroke-width="1" id="E1-MJMAIN-7D" d="M65 731Q65 745 68 747T88 750Q171 750 216 725T279 670Q288 649 289 635T291 501Q292 362 293 357Q306 312 345 291T417 269Q428 269 431 266T434 250T431 234T417 231Q380 231 345 210T298 157Q293 143 292 121T291 -28V-79Q291 -134 285 -156T256 -198Q202 -250 89 -250Q71 -250 68 -247T65 -230Q65 -224 65 -223T66 -218T69 -214T77 -213Q91 -213 108 -210T146 -200T183 -177T207 -139Q208 -134 209 3L210 139Q223 196 280 230Q315 247 330 250Q305 257 280 270Q225 304 212 352L210 362L209 498Q208 635 207 640Q195 680 154 696T77 713Q68 713 67 716T65 731Z"></path>
<path stroke-width="1" id="E1-MJMATHI-50" d="M287 628Q287 635 230 637Q206 637 199 638T192 648Q192 649 194 659Q200 679 203 681T397 683Q587 682 600 680Q664 669 707 631T751 530Q751 453 685 389Q616 321 507 303Q500 302 402 301H307L277 182Q247 66 247 59Q247 55 248 54T255 50T272 48T305 46H336Q342 37 342 35Q342 19 335 5Q330 0 319 0Q316 0 282 1T182 2Q120 2 87 2T51 1Q33 1 33 11Q33 13 36 25Q40 41 44 43T67 46Q94 46 127 49Q141 52 146 61Q149 65 218 339T287 628ZM645 554Q645 567 643 575T634 597T609 619T560 635Q553 636 480 637Q463 637 445 637T416 636T404 636Q391 635 386 627Q384 621 367 550T332 412T314 344Q314 342 395 342H407H430Q542 342 590 392Q617 419 631 471T645 554Z"></path>
</defs>
<g stroke="currentColor" fill="currentColor" stroke-width="0" transform="matrix(1 0 0 -1 0 0)">
<g transform="translate(7930,0)">
<g transform="translate(167,0)">
<g transform="translate(-11,0)">
<g transform="translate(0,4052)">
 <use xlink:href="#E1-MJAMS-45" x="0" y="0"></use>
 <use xlink:href="#E1-MJMAIN-5B" x="667" y="0"></use>
 <use xlink:href="#E1-MJMATHI-58" x="946" y="0"></use>
 <use xlink:href="#E1-MJMAIN-5D" x="1798" y="0"></use>
</g>
</g>
<g transform="translate(2066,0)">
<g transform="translate(0,4052)">
 <use xlink:href="#E1-MJMAIN-3D" x="277" y="0"></use>
<g transform="translate(1334,0)">
 <use xlink:href="#E1-MJSZ2-222B" x="0" y="0"></use>
 <use transform="scale(0.707)" xlink:href="#E1-MJMAIN-31" x="1500" y="1540"></use>
 <use transform="scale(0.707)" xlink:href="#E1-MJMAIN-30" x="787" y="-1270"></use>
</g>
 <use xlink:href="#E1-MJMATHI-78" x="3015" y="0"></use>
 <use xlink:href="#E1-MJMATHI-70" x="3588" y="0"></use>
 <use xlink:href="#E1-MJMAIN-28" x="4091" y="0"></use>
 <use xlink:href="#E1-MJMATHI-78" x="4481" y="0"></use>
 <use xlink:href="#E1-MJMAIN-29" x="5053" y="0"></use>
 <use xlink:href="#E1-MJMATHI-64" x="5443" y="0"></use>
 <use xlink:href="#E1-MJMATHI-78" x="5966" y="0"></use>
</g>
<g transform="translate(0,1277)">
 <use xlink:href="#E1-MJMAIN-3D" x="277" y="0"></use>
<g transform="translate(1334,0)">
 <use xlink:href="#E1-MJSZ2-222B" x="0" y="0"></use>
 <use transform="scale(0.707)" xlink:href="#E1-MJMATHI-61" x="1500" y="1540"></use>
 <use transform="scale(0.707)" xlink:href="#E1-MJMAIN-30" x="787" y="-1270"></use>
</g>
 <use xlink:href="#E1-MJMATHI-78" x="3036" y="0"></use>
 <use xlink:href="#E1-MJMATHI-70" x="3608" y="0"></use>
 <use xlink:href="#E1-MJMAIN-28" x="4112" y="0"></use>
 <use xlink:href="#E1-MJMATHI-78" x="4501" y="0"></use>
 <use xlink:href="#E1-MJMAIN-29" x="5074" y="0"></use>
 <use xlink:href="#E1-MJMATHI-64" x="5463" y="0"></use>
 <use xlink:href="#E1-MJMATHI-78" x="5987" y="0"></use>
 <use xlink:href="#E1-MJMAIN-2B" x="6781" y="0"></use>
<g transform="translate(7782,0)">
 <use xlink:href="#E1-MJSZ2-222B" x="0" y="0"></use>
 <use transform="scale(0.707)" xlink:href="#E1-MJMAIN-31" x="1500" y="1540"></use>
 <use transform="scale(0.707)" xlink:href="#E1-MJMATHI-61" x="787" y="-1270"></use>
</g>
 <use xlink:href="#E1-MJMATHI-78" x="9464" y="0"></use>
 <use xlink:href="#E1-MJMATHI-70" x="10036" y="0"></use>
 <use xlink:href="#E1-MJMAIN-28" x="10540" y="0"></use>
 <use xlink:href="#E1-MJMATHI-78" x="10929" y="0"></use>
 <use xlink:href="#E1-MJMAIN-29" x="11502" y="0"></use>
 <use xlink:href="#E1-MJMATHI-64" x="11891" y="0"></use>
 <use xlink:href="#E1-MJMATHI-78" x="12415" y="0"></use>
</g>
<g transform="translate(0,-1498)">
 <use xlink:href="#E1-MJMAIN-2264" x="277" y="0"></use>
 <use xlink:href="#E1-MJMATHI-61" x="1334" y="0"></use>
<g transform="translate(2030,0)">
 <use xlink:href="#E1-MJSZ2-222B" x="0" y="0"></use>
 <use transform="scale(0.707)" xlink:href="#E1-MJMATHI-61" x="1500" y="1540"></use>
 <use transform="scale(0.707)" xlink:href="#E1-MJMAIN-30" x="787" y="-1270"></use>
</g>
 <use xlink:href="#E1-MJMATHI-70" x="3732" y="0"></use>
 <use xlink:href="#E1-MJMAIN-28" x="4235" y="0"></use>
 <use xlink:href="#E1-MJMATHI-78" x="4625" y="0"></use>
 <use xlink:href="#E1-MJMAIN-29" x="5197" y="0"></use>
 <use xlink:href="#E1-MJMATHI-64" x="5587" y="0"></use>
 <use xlink:href="#E1-MJMATHI-78" x="6110" y="0"></use>
 <use xlink:href="#E1-MJMAIN-2B" x="6905" y="0"></use>
<g transform="translate(7906,0)">
 <use xlink:href="#E1-MJSZ2-222B" x="0" y="0"></use>
 <use transform="scale(0.707)" xlink:href="#E1-MJMAIN-31" x="1500" y="1540"></use>
 <use transform="scale(0.707)" xlink:href="#E1-MJMATHI-61" x="787" y="-1270"></use>
</g>
 <use xlink:href="#E1-MJMATHI-70" x="9587" y="0"></use>
 <use xlink:href="#E1-MJMAIN-28" x="10091" y="0"></use>
 <use xlink:href="#E1-MJMATHI-78" x="10480" y="0"></use>
 <use xlink:href="#E1-MJMAIN-29" x="11053" y="0"></use>
 <use xlink:href="#E1-MJMATHI-64" x="11442" y="0"></use>
 <use xlink:href="#E1-MJMATHI-78" x="11966" y="0"></use>
</g>
<g transform="translate(0,-3512)">
 <use xlink:href="#E1-MJMAIN-3D" x="277" y="0"></use>
 <use xlink:href="#E1-MJMATHI-61" x="1334" y="0"></use>
 <use xlink:href="#E1-MJMAIN-28" x="1863" y="0"></use>
 <use xlink:href="#E1-MJMAIN-31" x="2253" y="0"></use>
 <use xlink:href="#E1-MJMAIN-2212" x="2975" y="0"></use>
 <use xlink:href="#E1-MJMATHI-70" x="3976" y="0"></use>
 <use xlink:href="#E1-MJMAIN-7B" x="4480" y="0"></use>
 <use xlink:href="#E1-MJMATHI-58" x="4980" y="0"></use>
 <use xlink:href="#E1-MJMAIN-2265" x="6110" y="0"></use>
 <use xlink:href="#E1-MJMATHI-61" x="7167" y="0"></use>
 <use xlink:href="#E1-MJMAIN-7D" x="7696" y="0"></use>
 <use xlink:href="#E1-MJMAIN-29" x="8197" y="0"></use>
 <use xlink:href="#E1-MJMAIN-2B" x="8808" y="0"></use>
 <use xlink:href="#E1-MJMATHI-70" x="9809" y="0"></use>
 <use xlink:href="#E1-MJMAIN-7B" x="10313" y="0"></use>
 <use xlink:href="#E1-MJMATHI-58" x="10813" y="0"></use>
 <use xlink:href="#E1-MJMAIN-2265" x="11943" y="0"></use>
 <use xlink:href="#E1-MJMATHI-61" x="13000" y="0"></use>
 <use xlink:href="#E1-MJMAIN-7D" x="13529" y="0"></use>
</g>
<g transform="translate(0,-4863)">
 <use xlink:href="#E1-MJMAIN-3D" x="277" y="0"></use>
 <use xlink:href="#E1-MJMATHI-61" x="1334" y="0"></use>
 <use xlink:href="#E1-MJMAIN-2B" x="2085" y="0"></use>
 <use xlink:href="#E1-MJMAIN-28" x="3086" y="0"></use>
 <use xlink:href="#E1-MJMAIN-31" x="3476" y="0"></use>
 <use xlink:href="#E1-MJMAIN-2212" x="4198" y="0"></use>
 <use xlink:href="#E1-MJMATHI-61" x="5199" y="0"></use>
 <use xlink:href="#E1-MJMAIN-29" x="5728" y="0"></use>
 <use xlink:href="#E1-MJMATHI-50" x="6118" y="0"></use>
 <use xlink:href="#E1-MJMAIN-7B" x="6869" y="0"></use>
 <use xlink:href="#E1-MJMATHI-58" x="7370" y="0"></use>
 <use xlink:href="#E1-MJMAIN-2265" x="8500" y="0"></use>
 <use xlink:href="#E1-MJMATHI-61" x="9557" y="0"></use>
 <use xlink:href="#E1-MJMAIN-7D" x="10086" y="0"></use>
</g>
</g>
</g>
</g>
</g>
</svg>